<?xml version="1.0" encoding="UTF-8"?>
<svg version="1.1" xmlns="http://www.w3.org/2000/svg" width="1920" height="1080">
<path d="M0 0 C633.6 0 1267.2 0 1920 0 C1920 356.4 1920 712.8 1920 1080 C1286.4 1080 652.8 1080 0 1080 C0 723.6 0 367.2 0 0 Z " fill="#FEFEFE" transform="translate(0,0)"/>
<path d="M0 0 C16.83 0 33.66 0 51 0 C53.81841078 7.89155019 56.56053244 15.60567977 58.97265625 23.59765625 C60.10372726 27.34352261 61.26723423 31.07875196 62.4375 34.8125 C62.86461284 36.1770741 63.29169601 37.54165748 63.71875 38.90625 C63.93144531 39.58558594 64.14414062 40.26492187 64.36328125 40.96484375 C64.98279133 42.94499559 65.60102385 44.925541 66.21875 46.90625 C66.62499881 48.2083337 67.03124882 49.51041704 67.4375 50.8125 C67.63964111 51.46089844 67.84178223 52.10929687 68.05004883 52.77734375 C69.20304521 56.46981129 70.36725817 60.15844763 71.54296875 63.84375 C74.20138305 72.18660238 76.82608774 80.51411441 79 89 C82.08428642 81.12500064 85.0228762 73.27110372 87.3125 65.125 C89.41931069 57.64444939 91.9230647 50.33079142 94.5 43 C97.56261641 34.27907425 100.4102583 25.55219972 102.94140625 16.6640625 C107.25037481 1.74962519 107.25037481 1.74962519 109 0 C110.59610982 -0.09333705 112.19633428 -0.11745372 113.79516602 -0.11352539 C114.81614883 -0.11344986 115.83713165 -0.11337433 116.88905334 -0.11329651 C117.9994548 -0.10813522 119.10985626 -0.10297394 120.25390625 -0.09765625 C121.94978127 -0.09553383 121.94978127 -0.09553383 123.67991638 -0.09336853 C127.30747065 -0.08775019 130.93496424 -0.07519458 134.5625 -0.0625 C137.01497307 -0.05748736 139.4674471 -0.05292405 141.91992188 -0.04882812 C147.94663545 -0.0377748 153.97331339 -0.02101884 160 0 C157.44603767 10.98148917 154.2713814 21.56686951 150.5 32.1875 C149.54859486 34.8881065 148.60128108 37.59012558 147.65625 40.29296875 C147.31140564 41.27757584 147.31140564 41.27757584 146.95959473 42.28207397 C145.17088551 47.42425191 143.55335258 52.60679298 141.97851562 57.81762695 C139.907229 64.55395956 137.6069915 71.21680677 135.35546875 77.89453125 C133.50344952 83.41240298 131.69604526 88.935924 130 94.50390625 C127.61610289 102.32710126 124.98587761 110.06354288 122.35546875 117.80664062 C120.44394069 123.48538979 118.6425207 129.16580216 117.03125 134.9375 C114.9766316 142.25224666 112.52442453 149.39848917 110 156.5625 C107.17929726 164.59295523 104.46357163 172.62741243 101.99609375 180.77368164 C100.27027826 186.36354726 98.37381949 191.89588841 96.5 197.4375 C94.13650021 204.4663927 91.78081039 211.47430275 89.8125 218.625 C87.56580756 226.52715961 84.73422925 234.25301711 82 242 C65.17 242 48.34 242 31 242 C33.24782317 229.63697254 33.24782317 229.63697254 35.20703125 224.1796875 C35.62645996 222.9930249 36.04588867 221.8063623 36.47802734 220.58374023 C36.91840332 219.35985596 37.3587793 218.13597168 37.8125 216.875 C40.91087311 208.12215835 43.94657133 199.37849346 46.43310547 190.42871094 C47.55752871 186.39152557 48.9325381 182.53392744 50.4375 178.625 C53.40961521 169.80491722 50.259794 162.24734812 47.05859375 153.91015625 C45.94332647 150.84420008 45.05276396 147.7704016 44.1875 144.625 C42.48764158 138.51088472 40.53376636 132.51077855 38.5 126.5 C36.17236334 119.6151663 34.02898329 112.72562914 32.09375 105.71875 C30.68691565 100.93551321 29.0965097 96.22272954 27.5 91.5 C25.17257056 84.61509366 23.02898656 77.72564098 21.09375 70.71875 C19.68691565 65.93551321 18.0965097 61.22272954 16.5 56.5 C14.17398522 49.61927847 12.02656861 42.73581708 10.1015625 35.73046875 C8.40915786 29.99909842 6.44839921 24.35609134 4.4609375 18.72070312 C2.28278541 12.38558666 1.22861085 6.75735968 0 0 Z " fill="#010101" transform="translate(881,147)"/>
<path d="M0 0 C0.33 17.16 0.66 34.32 1 52 C8.11222781 37.10465563 8.11222781 37.10465563 15.14770508 22.1730957 C16.06057484 20.29765522 16.97601674 18.42346363 17.89453125 16.55078125 C18.55503479 15.09931702 18.55503479 15.09931702 19.22888184 13.61853027 C22.47294166 7.11609736 25.63718511 4.45514036 32.41777039 1.82048035 C46.02198637 -2.50213751 61.18340504 -1.03321656 74 5 C77.04719718 6.70327984 79.49933421 8.57125601 82 11 C82.68578125 11.65871094 83.3715625 12.31742188 84.078125 12.99609375 C98.30791169 27.77926103 98.43264886 46.61737741 98.38012505 65.90428162 C98.37092951 69.59721036 98.3813345 73.28964055 98.39674377 76.98254395 C98.43661354 87.47321914 98.43804789 97.9638514 98.43579102 108.45458984 C98.43573972 114.89525172 98.45500154 121.33564244 98.48512459 127.77622986 C98.49587463 131.39498977 98.48386617 135.01321584 98.47129822 138.63195801 C98.49215452 152.18993819 98.86241816 163.10403026 106 175 C83.89 175 61.78 175 39 175 C40.65 172.03 42.3 169.06 44 166 C45.7529171 159.30314678 46.29477205 153.07334137 46.2746582 146.17919922 C46.27976913 145.25424652 46.28488007 144.32929382 46.29014587 143.37631226 C46.30392188 140.35236953 46.30309488 137.32865765 46.30078125 134.3046875 C46.3046734 132.18580034 46.30900914 130.06691396 46.31376648 127.94802856 C46.32120186 123.52180442 46.32095591 119.09566009 46.31567383 114.66943359 C46.30986806 109.0093179 46.3268501 103.34952826 46.3500185 97.68946648 C46.36477379 93.31932683 46.36562534 88.94926552 46.36250877 84.57910538 C46.36302059 82.4923958 46.36823207 80.40568168 46.37832069 78.31899643 C46.39070919 75.39978727 46.38387997 72.48121135 46.37231445 69.56201172 C46.37995819 68.70881348 46.38760193 67.85561523 46.39547729 66.9765625 C46.33652828 60.21710416 44.86746762 55.00128724 41.25 49.1875 C36.60037969 44.66703581 32.36170867 43.80770088 26.0625 43.625 C19.80135283 43.82797983 14.87508239 44.43190793 10.09765625 48.69921875 C3.44156406 55.8619057 0.3871764 62.56992617 0.48242188 72.33081055 C0.4754126 73.22793259 0.46840332 74.12505463 0.46118164 75.04936218 C0.44367453 77.99546904 0.45520356 80.94060321 0.46875 83.88671875 C0.46605182 85.95164675 0.46216668 88.01657351 0.45715332 90.08149719 C0.45126709 94.40463382 0.45978874 98.72743912 0.47851562 103.05053711 C0.50123274 108.56014702 0.48822222 114.06897428 0.46422577 119.57855511 C0.44968288 123.84342708 0.45441371 128.10811755 0.46473694 132.37299538 C0.46738456 134.40253609 0.46420455 136.43209387 0.45481873 138.46161461 C0.40608098 151.9683942 0.86640646 163.11067744 8 175 C-14.11 175 -36.22 175 -59 175 C-57.35 172.03 -55.7 169.06 -54 166 C-51.96706815 159.84478402 -51.70803667 154.20054674 -51.7253418 147.7512207 C-51.72023087 146.75656296 -51.71511993 145.76190521 -51.70985413 144.73710632 C-51.69601676 141.46660246 -51.69691101 138.19631082 -51.69921875 134.92578125 C-51.69532763 132.63665184 -51.6909921 130.34752315 -51.68623352 128.05839539 C-51.67878314 123.26457376 -51.67905332 118.47082579 -51.68432617 113.67700195 C-51.69010854 107.56220292 -51.67321362 101.447708 -51.6499815 95.33295918 C-51.63517839 90.60489669 -51.63438157 85.87690625 -51.63749123 81.14882469 C-51.63698097 78.89599189 -51.63179927 76.64315475 -51.62167931 74.39034462 C-50.75646118 53.77219283 -50.75646118 53.77219283 -58.55859375 35.36328125 C-63.50746838 30.68263831 -68.31789841 29.46891941 -75 29 C-75 28.34 -75 27.68 -75 27 C-73.71351563 26.82726562 -72.42703125 26.65453125 -71.1015625 26.4765625 C-48.65651121 23.11643663 -20.18135065 0 0 0 Z " fill="#030303" transform="translate(574,143)"/>
<path d="M0 0 C0.33 17.82 0.66 35.64 1 54 C8.26071556 38.83015945 8.26071556 38.83015945 15.48828125 23.64453125 C16.4283473 21.6998724 17.36967363 19.75582207 18.3125 17.8125 C18.78494141 16.80509766 19.25738281 15.79769531 19.74414062 14.75976562 C23.30747212 7.4726798 26.62804869 4.17940518 34.265625 1.27734375 C39.11596368 -0.21733175 43.69849605 -0.49947561 48.75 -0.4375 C49.62253418 -0.42992676 50.49506836 -0.42235352 51.39404297 -0.41455078 C63.66582941 -0.10418808 75.06510422 3.63894243 84.21875 12.03515625 C95.9903466 24.4875728 98.12729745 38.99937237 98.17358398 55.45410156 C98.180271 56.45865891 98.18695801 57.46321625 98.19384766 58.49821472 C98.20782226 60.66539589 98.21973994 62.83259111 98.22979546 64.99979401 C98.24633224 68.44024272 98.26957487 71.88058772 98.29469299 75.32098389 C98.36511686 85.09821317 98.42544637 94.87548427 98.47680664 104.65283203 C98.50876754 110.64793895 98.55008185 116.64292424 98.59700203 122.63793182 C98.61291527 124.9102737 98.62528544 127.18264348 98.63390923 129.45502472 C98.23410306 150.39256078 98.23410306 150.39256078 104.09765625 170.1953125 C105 172 105 172 106 175 C84.22 175 62.44 175 40 175 C41.65 171.04 43.3 167.08 45 163 C46.75041363 156.70374406 47.29761496 151.00192347 47.29052734 144.4921875 C47.29724457 143.58849426 47.30396179 142.68480103 47.31088257 141.75372314 C47.32973653 138.79409144 47.33377978 135.83468785 47.3359375 132.875 C47.34237215 130.80191965 47.349101 128.7288402 47.35610962 126.65576172 C47.36804937 122.32191868 47.37179364 117.98815518 47.37060547 113.65429688 C47.370402 108.11635603 47.39774787 102.57892673 47.43214989 97.04110718 C47.45444057 92.76356689 47.45844241 88.48614954 47.45738602 84.20855713 C47.45973701 82.16732006 47.46853209 80.12607934 47.48405075 78.0848999 C47.50376289 75.22551015 47.4978531 72.36722199 47.48583984 69.5078125 C47.49707886 68.67533997 47.50831787 67.84286743 47.51989746 66.98516846 C47.44754726 60.16931023 45.6488798 54.08477142 41.1484375 48.84375 C40.27058594 48.17859375 40.27058594 48.17859375 39.375 47.5 C38.78460938 47.0359375 38.19421875 46.571875 37.5859375 46.09375 C32.27343585 42.42995576 25.17907859 43.47198108 19 44 C11.12509163 46.19556478 6.88092088 52.11969705 3 59 C0.73778885 63.47240116 0.71020503 67.71578155 0.7253418 72.62304688 C0.7176754 73.90955139 0.7176754 73.90955139 0.70985413 75.2220459 C0.69596965 78.05435192 0.69691525 80.886414 0.69921875 83.71875 C0.69532878 85.69828379 0.69099349 87.67781675 0.68623352 89.65734863 C0.67877198 93.81000468 0.67906036 97.96257574 0.68432617 102.11523438 C0.69009482 107.40620145 0.67325272 112.69681548 0.6499815 117.9877243 C0.63515483 122.08013912 0.63438498 126.17247091 0.63749123 130.26490784 C0.63698164 132.21351312 0.63181279 134.16212351 0.62167931 136.11070251 C0.5562165 150.46986685 1.44596737 161.89193474 8 175 C-13.78 175 -35.56 175 -58 175 C-56.35 171.04 -54.7 167.08 -53 163 C-51.18365993 156.51739651 -50.7026543 150.62064641 -50.70947266 143.91308594 C-50.70275543 142.94754288 -50.69603821 141.98199982 -50.68911743 140.98719788 C-50.67023955 137.81953678 -50.66621834 134.65208873 -50.6640625 131.484375 C-50.65762728 129.2639355 -50.65089839 127.04349684 -50.64389038 124.82305908 C-50.63194296 120.176453 -50.62820693 115.52992113 -50.62939453 110.88330078 C-50.62959752 104.95789997 -50.60230396 99.03297981 -50.56785011 93.10769272 C-50.54550505 88.52288672 -50.54155933 83.938195 -50.54261398 79.35334015 C-50.54026915 77.17027379 -50.53150936 74.98720375 -50.51594925 72.80419159 C-50.10721668 51.54578048 -50.10721668 51.54578048 -60.21875 33.48828125 C-64.5414142 29.87658156 -68.5485181 29.54514819 -74 29 C-74 28.34 -74 27.68 -74 27 C-73.44650879 26.89453857 -72.89301758 26.78907715 -72.32275391 26.68041992 C-57.96954649 24.08553656 -57.96954649 24.08553656 -44 20 C-42.99453125 19.63777344 -41.9890625 19.27554688 -40.953125 18.90234375 C-29.59674352 14.57430058 -11.21335311 0 0 0 Z " fill="#010101" transform="translate(177,143)"/>
<path d="M0 0 C0.80808105 0.15678223 1.61616211 0.31356445 2.44873047 0.47509766 C8.14030796 1.69933262 13.20840752 3.70759262 18.4375 6.25 C17.95308186 14.47565636 16.13490387 22.16936695 14.0625 30.125 C13.75828125 31.31480469 13.4540625 32.50460938 13.140625 33.73046875 C12.53815109 36.08629624 11.93306891 38.44145845 11.32519531 40.79589844 C10.00299192 45.94070965 8.71832791 51.09475635 7.4375 56.25 C6.95192627 55.82025879 6.46635254 55.39051758 5.96606445 54.94775391 C-2.63763737 47.37590876 -10.87653684 43.5514287 -22.51171875 43.90625 C-31.49715354 44.91869336 -39.23957583 48.80358122 -45.5625 55.25 C-50.58647344 61.82153669 -52.67339647 68.3049653 -55.5625 76.25 C-42.3625 76.25 -29.1625 76.25 -15.5625 76.25 C-15.5625 91.43 -15.5625 106.61 -15.5625 122.25 C-29.0925 122.25 -42.6225 122.25 -56.5625 122.25 C-56.4994615 135.6200819 -56.42394853 148.98993633 -56.32678509 162.35981464 C-56.28215502 168.56872052 -56.24288258 174.77756188 -56.21606445 180.98657227 C-56.18995818 186.98432342 -56.1495038 192.98182536 -56.09931374 198.97942162 C-56.08269453 201.26178055 -56.07114958 203.54418255 -56.06488609 205.8265934 C-56.0551912 209.03610675 -56.02706729 212.24498957 -55.99487305 215.4543457 C-55.99630814 216.38727448 -55.99774323 217.32020325 -55.9992218 218.28140259 C-55.84937616 228.92026256 -52.5171166 237.36345851 -48.5625 247.25 C-70.3425 247.25 -92.1225 247.25 -114.5625 247.25 C-112.9125 243.29 -111.2625 239.33 -109.5625 235.25 C-107.28195603 227.55384568 -107.27550286 220.19752794 -107.29125977 212.20336914 C-107.28686448 210.80269063 -107.28155943 209.40201473 -107.27542114 208.00134277 C-107.26397673 204.99927744 -107.25846578 201.99728216 -107.25753975 198.99519539 C-107.25558467 194.23016696 -107.23745008 189.46528119 -107.21678162 184.70030212 C-107.16777565 172.8595269 -107.1368224 161.01871295 -107.11547852 149.17785645 C-107.09887136 139.98094875 -107.07580979 130.78416413 -107.03245777 121.58733839 C-107.01441202 117.6353389 -107.00204396 113.68350671 -107.00375557 109.73146248 C-107.01597779 70.21170512 -107.01597779 70.21170512 -100.25 53.25 C-99.94441162 52.45730713 -99.63882324 51.66461426 -99.32397461 50.84790039 C-96.97458642 44.91866622 -94.31147496 39.43376784 -90.5625 34.25 C-89.96824219 33.425 -89.37398438 32.6 -88.76171875 31.75 C-76.0085439 14.98430321 -58.90673867 4.80387594 -38.5625 0.25 C-37.78519531 0.04246094 -37.00789063 -0.16507812 -36.20703125 -0.37890625 C-24.32666497 -3.30298952 -11.88084879 -2.32717657 0 0 Z " fill="#000000" transform="translate(407.5625,70.75)"/>
<path d="M0 0 C0.33 0 0.66 0 1 0 C1 16.83 1 33.66 1 51 C13.21 51 25.42 51 38 51 C38 66.18 38 81.36 38 97 C25.79 97 13.58 97 1 97 C1.06206032 108.05786262 1.06206032 108.05786262 1.16015625 119.11523438 C1.20822116 123.63533703 1.25236547 128.15520475 1.27099609 132.67553711 C1.28631302 136.32630737 1.32101709 139.97645642 1.36830902 143.6269474 C1.38296997 145.00889958 1.39103207 146.39094052 1.39188385 147.7729702 C1.40397838 157.57093552 1.75665425 169.35115394 8.3125 177.3125 C13.52301832 180.77729479 21.11213029 179.70048611 27 179 C30.12884199 177.99446782 32.19517019 176.79932478 35 175 C36.32621709 174.3192868 37.6580109 173.64906662 39 173 C39.08636719 173.76699219 39.17273438 174.53398437 39.26171875 175.32421875 C40.35970585 183.99730954 42.1654073 192.33491327 44.32299805 200.80151367 C44.53867432 201.66236572 44.75435059 202.52321777 44.9765625 203.41015625 C45.27167725 204.55689819 45.27167725 204.55689819 45.57275391 205.72680664 C46.04421521 208.23525017 46.19301807 210.45380984 46 213 C41.85681422 217.57179121 35.58395901 219.64125869 30 222 C29.16210938 222.35578125 28.32421875 222.7115625 27.4609375 223.078125 C13.12885579 228.44696831 -4.21175283 227.26361864 -18.26171875 221.7109375 C-31.11354302 215.68009399 -39.01434922 206.98771069 -44.3203125 193.69140625 C-48.533436 180.69314004 -49.285689 167.9645148 -49.1953125 154.421875 C-49.19157346 152.75750907 -49.18873071 151.09314091 -49.18673706 149.42877197 C-49.17917062 145.08874224 -49.15958385 140.74885046 -49.1373291 136.40887451 C-49.11671842 131.96400823 -49.10770308 127.51911924 -49.09765625 123.07421875 C-49.07632997 114.38274273 -49.04120651 105.69140452 -49 97 C-53.62 97 -58.24 97 -63 97 C-63 81.49 -63 65.98 -63 50 C-58.05 47.36 -53.1 44.72 -48 42 C-45.03824252 40.10790204 -42.20118852 38.24910712 -39.375 36.1875 C-38.66754639 35.67815918 -37.96009277 35.16881836 -37.23120117 34.64404297 C-23.53887444 24.66549156 -10.5728291 13.28444879 0 0 Z " fill="#010101" transform="translate(826,96)"/>
<path d="M0 0 C23.1 0 46.2 0 70 0 C68.35 3.63 66.7 7.26 65 11 C62.34174019 20.30844635 62.71754273 29.77066415 62.74121094 39.37036133 C62.73849723 41.22264239 62.73493417 43.07492236 62.73059082 44.92720032 C62.72150782 49.93561289 62.72499467 54.94394264 62.73134899 59.95235658 C62.73643248 65.20999506 62.73171082 70.46762672 62.72857666 75.7252655 C62.72494289 84.55587021 62.72971966 93.38644141 62.73925781 102.21704102 C62.75013109 112.40078987 62.74662258 122.58445856 62.735605 132.76820546 C62.72650324 141.53457439 62.72526124 150.30091931 62.73048234 159.06729144 C62.73358749 164.29285315 62.73405182 169.5183773 62.72740936 174.74393654 C62.72159476 179.66141537 62.72570747 184.57879182 62.73719788 189.49625969 C62.73982302 191.29203243 62.73911648 193.08781391 62.73467255 194.88358307 C62.5610451 214.16331327 62.5610451 214.16331327 68.9765625 232.07421875 C70 234 70 234 70 236 C46.57 236 23.14 236 -1 236 C0.65 232.7 2.3 229.4 4 226 C5.68190985 220.04081006 6.29234114 214.64428473 6.26069641 208.48161316 C6.26643473 207.26996356 6.26643473 207.26996356 6.27228898 206.03383619 C6.28252733 203.35346268 6.27864441 200.67330707 6.2746582 197.99291992 C6.27900979 196.06034651 6.28419443 194.12777483 6.29014587 192.19520569 C6.3034999 186.96367525 6.30411848 181.73221721 6.30158257 176.50067306 C6.30051029 172.12468365 6.30540288 167.74870874 6.310188 163.37272245 C6.32127103 153.04363655 6.32172754 142.71458701 6.31567383 132.38549805 C6.30963618 121.75013628 6.32194257 111.11490689 6.3432439 100.47956771 C6.36089128 91.33022128 6.36685626 82.18091686 6.36360615 73.03155404 C6.36179795 67.57515474 6.36438306 62.11884985 6.37832069 56.66246605 C6.39094528 51.52828708 6.38891125 46.39431357 6.37590981 41.26013756 C6.37355444 39.38331532 6.37624114 37.50647841 6.38453293 35.629673 C6.43380168 23.60430312 6.40669532 12.58415109 0 2 C0 1.34 0 0.68 0 0 Z " fill="#010101" transform="translate(37,82)"/>
<path d="M0 0 C0.00219984 1.19572899 0.00219984 1.19572899 0.00444412 2.41561413 C0.04157531 21.85625474 0.10067343 41.2967166 0.18390274 60.737216 C0.2236288 70.13869685 0.25605387 79.54009478 0.27099609 88.94165039 C0.28404606 97.14075414 0.31109564 105.33967493 0.35461307 113.53867561 C0.37715297 117.87575395 0.3929152 122.21260727 0.39188385 126.54974937 C0.39113279 130.64156559 0.40926051 134.73288579 0.44116783 138.82457352 C0.44960707 140.31715567 0.45145794 141.80979385 0.44580269 143.30238914 C0.4076284 154.93787231 1.93409575 164.89015959 8 175 C-14.11 175 -36.22 175 -59 175 C-57.35 172.03 -55.7 169.06 -54 166 C-51.96706815 159.84478402 -51.70803667 154.20054674 -51.7253418 147.7512207 C-51.72023087 146.75656296 -51.71511993 145.76190521 -51.70985413 144.73710632 C-51.69601676 141.46660246 -51.69691101 138.19631082 -51.69921875 134.92578125 C-51.69532763 132.63665184 -51.6909921 130.34752315 -51.68623352 128.05839539 C-51.67878314 123.26457376 -51.67905332 118.47082579 -51.68432617 113.67700195 C-51.69010854 107.56220292 -51.67321362 101.447708 -51.6499815 95.33295918 C-51.63517839 90.60489669 -51.63438157 85.87690625 -51.63749123 81.14882469 C-51.63698097 78.89599189 -51.63179927 76.64315475 -51.62167931 74.39034462 C-50.75519213 53.79112465 -50.75519213 53.79112465 -58.48828125 35.36328125 C-63.27540747 31.04620876 -68.70790664 29.52434111 -75 29 C-75 28.34 -75 27.68 -75 27 C-73.71351563 26.82726562 -72.42703125 26.65453125 -71.1015625 26.4765625 C-48.65651121 23.11643663 -20.18135065 0 0 0 Z " fill="#030303" transform="translate(750,143)"/>
<path d="M0 0 C0.00219984 1.19572899 0.00219984 1.19572899 0.00444412 2.41561413 C0.04157531 21.85625474 0.10067343 41.2967166 0.18390274 60.737216 C0.2236288 70.13869685 0.25605387 79.54009478 0.27099609 88.94165039 C0.28404606 97.14075414 0.31109564 105.33967493 0.35461307 113.53867561 C0.37715297 117.87575395 0.3929152 122.21260727 0.39188385 126.54974937 C0.39113279 130.64156559 0.40926051 134.73288579 0.44116783 138.82457352 C0.44960707 140.31715567 0.45145794 141.80979385 0.44580269 143.30238914 C0.4076284 154.93787231 1.93409575 164.89015959 8 175 C-14.11 175 -36.22 175 -59 175 C-57.35 172.03 -55.7 169.06 -54 166 C-51.96706815 159.84478402 -51.70803667 154.20054674 -51.7253418 147.7512207 C-51.72023087 146.75656296 -51.71511993 145.76190521 -51.70985413 144.73710632 C-51.69601676 141.46660246 -51.69691101 138.19631082 -51.69921875 134.92578125 C-51.69532763 132.63665184 -51.6909921 130.34752315 -51.68623352 128.05839539 C-51.67878314 123.26457376 -51.67905332 118.47082579 -51.68432617 113.67700195 C-51.69010854 107.56220292 -51.67321362 101.447708 -51.6499815 95.33295918 C-51.63517839 90.60489669 -51.63438157 85.87690625 -51.63749123 81.14882469 C-51.63698097 78.89599189 -51.63179927 76.64315475 -51.62167931 74.39034462 C-50.75519213 53.79112465 -50.75519213 53.79112465 -58.48828125 35.36328125 C-63.27540747 31.04620876 -68.70790664 29.52434111 -75 29 C-75 28.34 -75 27.68 -75 27 C-73.71351563 26.82726562 -72.42703125 26.65453125 -71.1015625 26.4765625 C-48.65651121 23.11643663 -20.18135065 0 0 0 Z " fill="#030303" transform="translate(496,143)"/>
<path d="M0 0 C1.59618164 -0.01160156 1.59618164 -0.01160156 3.22460938 -0.0234375 C13.54927064 0.00175996 22.74712966 1.12366509 31.9375 6 C32.62134766 6.35126953 33.30519531 6.70253906 34.00976562 7.06445312 C38.81157313 9.60117022 42.83006953 12.39256953 46.6875 16.25 C45.08680991 20.9702168 42.48795802 24.74383457 39.6875 28.8125 C38.789519 30.12483509 37.89361772 31.43859615 37 32.75390625 C36.60425781 33.32955322 36.20851563 33.9052002 35.80078125 34.49829102 C34.61851863 36.35853976 33.64107331 38.26420535 32.6875 40.25 C29.76154755 38.87539147 27.24322652 37.2640382 24.625 35.375 C14.47562657 28.59767699 4.75593752 26.90078797 -7.1875 28.9375 C-11.42623158 30.04854993 -13.83858171 31.49922065 -16.3125 35.25 C-16.99429284 38.40540488 -17.02345982 41.09807811 -16.3125 44.25 C-10.96753043 50.84212914 -0.31198911 52.57521101 7.5625 54.6875 C21.16855752 58.3610934 34.55177597 62.93841762 42.6875 75.25 C45.69254067 80.94526756 46.20263548 85.66991034 46.125 92.0625 C46.11525146 92.95179199 46.10550293 93.84108398 46.09545898 94.75732422 C45.80062048 105.64935824 42.67591112 112.10419723 35.109375 119.9921875 C21.75915588 132.43803694 5.72775848 134.88258692 -11.84765625 134.5625 C-26.30779865 133.96589794 -39.8141028 127.98317734 -50.47265625 118.27734375 C-52.52265584 116.01842701 -54.05526814 114.03853156 -55.3125 111.25 C-54.80859375 109.3671875 -54.80859375 109.3671875 -53.3125 107.25 C-52.56097656 106.18007813 -51.80945312 105.11015625 -51.03515625 104.0078125 C-49.7078078 102.18642852 -48.37230479 100.37135147 -47.03320312 98.55859375 C-44.39176434 94.92907577 -42.20871875 91.34282859 -40.3125 87.25 C-37.80167747 89.76082253 -35.29217393 92.27083422 -32.8125 94.8125 C-23.90167164 103.50055765 -15.66943896 106.5268633 -3.40014648 106.64599609 C2.39733849 106.54671276 6.56098267 105.38905994 10.6875 101.25 C12.25221233 98.12057535 12.38451958 94.63917777 11.6875 91.25 C8.72810682 87.3409508 4.99182571 85.89194722 0.5 84.3125 C-0.54752441 83.92964844 -0.54752441 83.92964844 -1.61621094 83.5390625 C-6.70653912 81.71606746 -11.85727164 80.20452313 -17.0625 78.75 C-29.17793386 75.31926306 -39.69274735 70.38860472 -47.625 60.3125 C-52.89758628 50.74373231 -54.24891189 40.1488101 -51.62109375 29.4296875 C-50.68990879 27.19328513 -49.64086886 25.27358995 -48.3125 23.25 C-47.88839844 22.56808594 -47.46429687 21.88617188 -47.02734375 21.18359375 C-39.61634417 10.30449409 -27.29278416 3.58583357 -14.63549805 0.6184082 C-9.78409501 -0.15098404 -4.8997268 -0.03522871 0 0 Z " fill="#020202" transform="translate(1179.3125,183.75)"/>
<path d="M0 0 C12.54 0 25.08 0 38 0 C37.01 2.64 36.02 5.28 35 8 C34.5712419 10.39868906 34.5712419 10.39868906 34.62145996 12.57051086 C34.61325729 13.38178436 34.60505463 14.19305786 34.59660339 15.02891541 C34.60275162 15.88989334 34.60889984 16.75087128 34.61523438 17.63793945 C34.6098616 18.56753479 34.60448883 19.49713013 34.59895325 20.45489502 C34.58921646 22.46111799 34.58621862 24.46738287 34.58930969 26.47362709 C34.59381234 29.65735868 34.57971718 32.84054162 34.56091309 36.0242157 C34.52423043 42.78696835 34.51044278 49.54966255 34.5 56.3125 C34.48788663 64.14386439 34.46617148 71.97495984 34.41999817 79.80620384 C34.40651262 82.92749728 34.41058365 86.04844331 34.41540527 89.16975403 C34.3801351 102.28776475 34.23752898 114.68302943 25 125 C16.88831872 131.62211107 8.2326148 132.82226369 -2 132 C-7.28321123 130.30182496 -9.86773882 127.42201578 -13 123 C-13 122.01 -13 121.02 -13 120 C-11.948125 119.7525 -10.89625 119.505 -9.8125 119.25 C-6.12590323 118.17008781 -3.72181059 116.79741644 -1 114 C2.08232204 108.24197991 2.42659235 103.48973093 2.37231445 97.02905273 C2.37596512 96.05255768 2.37961578 95.07606262 2.38337708 94.06997681 C2.39145125 90.85766956 2.37789921 87.64587169 2.36328125 84.43359375 C2.36276231 82.19352723 2.36328132 79.95346024 2.36479187 77.71339417 C2.36470229 73.02541276 2.35430076 68.33760382 2.33618164 63.6496582 C2.31348207 57.64516444 2.31295435 51.64092224 2.31969929 45.63639736 C2.32304281 41.01326772 2.31640212 36.39019528 2.30657005 31.76707649 C2.30272539 29.55312461 2.30156679 27.33916636 2.3031559 25.12521172 C2.30352734 22.03053564 2.29088446 18.93618052 2.2746582 15.84155273 C2.27713562 14.92969711 2.27961304 14.01784149 2.28216553 13.07835388 C2.27508072 12.23039246 2.26799591 11.38243103 2.26069641 10.5087738 C2.25761711 9.41349444 2.25761711 9.41349444 2.25447559 8.29608822 C2.00564125 5.31758858 2.00564125 5.31758858 0 0 Z " fill="#040404" transform="translate(1081,186)"/>
<path d="M0 0 C2.3046875 1.40234375 2.3046875 1.40234375 4.375 2.875 C5.01695312 3.30941406 5.65890625 3.74382812 6.3203125 4.19140625 C12.10799723 8.58854335 16.09054751 15.02164254 18.375 21.875 C19.34121564 33.01408601 18.20297806 42.20073995 11.46484375 51.515625 C5.41238127 58.34868545 -2.71157398 62.1215519 -11.66015625 63.26171875 C-21.33271771 63.78050929 -28.42621196 60.93362831 -36.01171875 55.01171875 C-42.43126527 49.09054738 -46.15107687 41.67861598 -46.86328125 32.95703125 C-47.03018359 25.60454417 -46.48011469 20.19210383 -42.625 13.875 C-42.20089844 13.17632812 -41.77679687 12.47765625 -41.33984375 11.7578125 C-32.48238331 -1.31866112 -14.54829903 -6.97152696 0 0 Z " fill="#020202" transform="translate(739.625,68.125)"/>
<path d="M0 0 C2.3046875 1.40234375 2.3046875 1.40234375 4.375 2.875 C5.01695312 3.30941406 5.65890625 3.74382812 6.3203125 4.19140625 C12.10799723 8.58854335 16.09054751 15.02164254 18.375 21.875 C19.34121564 33.01408601 18.20297806 42.20073995 11.46484375 51.515625 C5.41238127 58.34868545 -2.71157398 62.1215519 -11.66015625 63.26171875 C-21.33271771 63.78050929 -28.42621196 60.93362831 -36.01171875 55.01171875 C-42.43126527 49.09054738 -46.15107687 41.67861598 -46.86328125 32.95703125 C-47.03018359 25.60454417 -46.48011469 20.19210383 -42.625 13.875 C-42.20089844 13.17632812 -41.77679688 12.47765625 -41.33984375 11.7578125 C-32.48238331 -1.31866112 -14.54829903 -6.97152696 0 0 Z " fill="#020202" transform="translate(485.625,68.125)"/>
<path d="M0 0 C3.76266417 1.77871397 5.51796464 3.33137031 7.9375 6.6875 C9.35064983 11.0932024 9.30955881 14.56337348 8 19 C5.91520839 22.65032285 3.11553344 25.8241333 -1 27 C-5.81665605 27.46612801 -8.01211413 27.52190197 -12.3125 25.25 C-16.29403709 21.91662011 -18.04840921 19.83028009 -18.9375 14.6875 C-19.35089511 9.56646268 -18.08934606 7.06492903 -15 3 C-10.71648676 -0.90555619 -5.50129666 -0.78464007 0 0 Z " fill="#050505" transform="translate(1051,291)"/>
</svg>
